<svg fill="#000000" xmlns="http://www.w3.org/2000/svg" viewBox="0 0 32 32" width="512px" height="512px"><path d="M 10.925781 4 C 9.890625 4 8.949219 4.5625 8.445313 5.46875 L 3.367188 14.550781 L 3.367188 14.558594 C 2.867188 15.460938 2.867188 16.542969 3.367188 17.441406 L 3.367188 17.445313 L 8.445313 26.53125 C 8.949219 27.441406 9.890625 28 10.925781 28 L 21.074219 28 C 22.109375 28 23.050781 27.441406 23.554688 26.53125 L 28.632813 17.449219 L 28.636719 17.441406 C 29.132813 16.539063 29.132813 15.457031 28.636719 14.558594 L 28.632813 14.554688 L 23.554688 5.46875 L 23.554688 5.472656 C 23.050781 4.5625 22.109375 4 21.074219 4 Z M 10.925781 6 L 21.074219 6 C 21.335938 6 21.667969 6.191406 21.808594 6.441406 L 21.808594 6.445313 L 26.886719 15.527344 L 26.882813 15.523438 C 27.03125 15.789063 27.03125 16.214844 26.882813 16.480469 L 21.808594 25.558594 C 21.667969 25.808594 21.335938 26 21.074219 26 L 10.925781 26 C 10.664063 26 10.332031 25.808594 10.191406 25.558594 L 5.113281 16.472656 L 5.117188 16.476563 C 4.96875 16.210938 4.96875 15.785156 5.117188 15.519531 L 10.191406 6.441406 C 10.332031 6.191406 10.664063 6 10.925781 6 Z M 11.480469 11 C 11.363281 11.023438 11.285156 11.1875 11.347656 11.300781 L 13.871094 16 L 11.347656 20.6875 C 11.277344 20.816406 11.378906 21 11.515625 21 L 13.21875 21 C 13.289063 20.996094 13.359375 20.957031 13.386719 20.890625 L 15.976563 16.097656 C 15.992188 16.074219 15.996094 16.046875 16 16.019531 C 16.003906 16.046875 16.007813 16.074219 16.023438 16.097656 L 18.605469 20.890625 C 18.636719 20.957031 18.707031 21 18.78125 21 L 20.5 21 C 20.636719 21 20.742188 20.816406 20.671875 20.6875 L 18.144531 16 L 20.671875 11.300781 C 20.730469 11.179688 20.632813 11 20.5 11 L 18.78125 11 C 18.707031 11 18.640625 11.039063 18.605469 11.105469 L 16.027344 15.894531 C 16.011719 15.921875 16.007813 15.945313 16 15.972656 C 15.996094 15.945313 15.992188 15.921875 15.976563 15.894531 L 13.386719 11.105469 C 13.351563 11.042969 13.285156 11 13.21875 11 Z"/></svg>